<svg width="1206" height="2262" viewBox="0 0 1206 2262" class="keymap" xmlns="http://www.w3.org/2000/svg" xmlns:xlink="http://www.w3.org/1999/xlink">
<style>/* inherit to force styles through use tags */
svg path {
    fill: inherit;
}

/* font and background color specifications */
svg.keymap {
    font-family: SFMono-Regular,Consolas,Liberation Mono,Menlo,monospace;
    font-size: 14px;
    font-kerning: normal;
    text-rendering: optimizeLegibility;
    fill: #24292e;
}

/* default key styling */
rect.key {
    fill: #f6f8fa;
}

rect.key, rect.combo {
    stroke: #c9cccf;
    stroke-width: 1;
}

/* default key side styling, only used is draw_key_sides is set */
rect.side {
    filter: brightness(90%);
}

/* color accent for combo boxes */
rect.combo, rect.combo-separate {
    fill: #cdf;
}

/* color accent for held keys */
rect.held, rect.combo.held {
    fill: #fdd;
}

/* color accent for ghost (optional) keys */
rect.ghost, rect.combo.ghost {
    stroke-dasharray: 4, 4;
    stroke-width: 2;
}

text {
    text-anchor: middle;
    dominant-baseline: middle;
}

/* styling for layer labels */
text.label {
    font-weight: bold;
    text-anchor: start;
    stroke: white;
    stroke-width: 4;
    paint-order: stroke;
}

/* styling for optional footer */
text.footer {
    text-anchor: end;
    dominant-baseline: auto;
    stroke: white;
    stroke-width: 4;
    paint-order: stroke;
}

/* styling for combo tap, and key non-tap label text */
text.combo, text.hold, text.shifted, text.left, text.right, text.tl, text.tr, text.bl, text.br {
    font-size: 11px;
}

text.hold, text.bl, text.br {
    text-anchor: middle;
    dominant-baseline: auto;
}

text.shifted, text.tl, text.tr {
    text-anchor: middle;
    dominant-baseline: hanging;
}

text.left, text.tl, text.bl {
    text-anchor: start;
}

text.right, text.tr, text.br {
    text-anchor: end;
}

text.layer-activator {
    text-decoration: underline;
}

/* styling for hold/shifted label text in combo box */
text.combo.hold, text.combo.shifted, text.combo.left, text.combo.right {
    font-size: 8px;
}

/* lighter symbol for transparent keys */
text.trans {
    fill: #7b7e81;
}

/* styling for combo dendrons */
path.combo {
    stroke-width: 1;
    stroke: gray;
    fill: none;
}

/* Start Tabler Icons Cleanup */
/* cannot use height/width with glyphs */
.icon-tabler > path {
    fill: inherit;
    stroke: inherit;
    stroke-width: 2;
}
/* hide tabler's default box */
.icon-tabler > path[stroke="none"][fill="none"] {
    visibility: hidden;
}
/* End Tabler Icons Cleanup */
</style>
<g transform="translate(30, 0)" class="layer-Default">
<text x="0" y="28" class="label" id="Default">Default</text>
<g transform="translate(0, 56)">
<g transform="translate(202, 42)" class="key keypos-0">
<rect rx="6" ry="6" x="-54" y="-40" width="108" height="80" class="key"/>
<text x="0" y="0" class="key tap">ENTER</text>
<text x="0" y="38" class="key hold">media</text>
</g>
<g transform="translate(342, 42)" class="key keypos-1">
<rect rx="6" ry="6" x="-54" y="-40" width="108" height="80" class="key"/>
<text x="0" y="0" class="key tap">ESC</text>
<text x="0" y="38" class="key hold">scroll</text>
</g>
<g transform="translate(76, 119)" class="key keypos-2">
<rect rx="6" ry="6" x="-40" y="-103" width="80" height="206" class="key"/>
<text x="0" y="0" class="key tap">
<tspan x="0" dy="-0.6em">MIDDLE</tspan><tspan x="0" dy="1.2em">CLICK</tspan>
</text>
</g>
<g transform="translate(468, 119)" class="key keypos-3">
<rect rx="6" ry="6" x="-40" y="-103" width="80" height="206" class="key"/>
<text x="0" y="0" class="key tap">
<tspan x="0" dy="-1.2em">COPY</tspan><tspan x="0" dy="1.2em">/</tspan><tspan x="0" dy="1.2em">PASTE</tspan>
</text>
<text x="0" y="101" class="key hold">edit</text>
</g>
<g transform="translate(76, 357)" class="key keypos-4">
<rect rx="6" ry="6" x="-40" y="-103" width="80" height="206" class="key"/>
<text x="0" y="0" class="key tap">
<tspan x="0" dy="-0.6em">LEFT</tspan><tspan x="0" dy="1.2em">CLICK</tspan>
</text>
</g>
<g transform="translate(468, 357)" class="key keypos-5">
<rect rx="6" ry="6" x="-40" y="-103" width="80" height="206" class="key"/>
<text x="0" y="0" class="key tap">
<tspan x="0" dy="-0.6em">RIGHT</tspan><tspan x="0" dy="1.2em">CLICK</tspan>
</text>
</g>
<g transform="translate(202, 434)" class="key keypos-6">
<rect rx="6" ry="6" x="-54" y="-40" width="108" height="80" class="key"/>
<text x="0" y="0" class="key tap">BACK</text>
<text x="0" y="38" class="key hold">snipe</text>
</g>
<g transform="translate(342, 434)" class="key keypos-7">
<rect rx="6" ry="6" x="-54" y="-40" width="108" height="80" class="key"/>
<text x="0" y="0" class="key tap">CLOSE</text>
<text x="0" y="38" class="key hold">system</text>
<text x="0" y="-38" class="key shifted"><tspan style="font-size: 78%">2× RELOAD</tspan></text>
</g>
<g transform="translate(10, 448)" class="key keypos-8">
<rect rx="6" ry="6" x="-8" y="-26" width="16" height="52" class="key"/>
<text x="0" y="0" class="key tap">
<tspan x="0" dy="-1.2em">APP</tspan><tspan x="0" dy="1.2em">CYCLE</tspan><tspan x="0" dy="1.2em">&gt;</tspan>
</text>
</g>
<g transform="translate(533, 448)" class="key keypos-9">
<rect rx="6" ry="6" x="-8" y="-26" width="16" height="52" class="key"/>
<text x="0" y="0" class="key tap">
<tspan x="0" dy="-0.6em">TAB</tspan><tspan x="0" dy="1.2em">&lt;</tspan>
</text>
</g>
<g transform="translate(56, 486)" class="key keypos-10">
<rect rx="6" ry="6" x="-26" y="-8" width="52" height="16" class="key"/>
<text x="0" y="0" class="key tap">
<tspan x="0" dy="-1.2em">APP</tspan><tspan x="0" dy="1.2em">CYCLE</tspan><tspan x="0" dy="1.2em">&lt;</tspan>
</text>
</g>
<g transform="translate(487, 486)" class="key keypos-11">
<rect rx="6" ry="6" x="-26" y="-8" width="52" height="16" class="key"/>
<text x="0" y="0" class="key tap">
<tspan x="0" dy="-0.6em">TAB</tspan><tspan x="0" dy="1.2em">&gt;</tspan>
</text>
</g>
<g class="combo combopos-0">
<rect rx="6" ry="6" x="258" y="29" width="28" height="26" class="combo"/>
<a href="#Excel">
<text x="272" y="42" class="combo tap layer-activator">Excel</text>
</a><text x="272" y="53" class="combo hold">toggle</text>
</g>
</g>
</g>
<g transform="translate(633, 0)" class="layer-Edit">
<text x="0" y="28" class="label" id="Edit">Edit</text>
<g transform="translate(0, 56)">
<g transform="translate(202, 42)" class="key keypos-0">
<rect rx="6" ry="6" x="-54" y="-40" width="108" height="80" class="key"/>
<text x="0" y="0" class="key tap">BKSP</text>
</g>
<g transform="translate(342, 42)" class="key keypos-1">
<rect rx="6" ry="6" x="-54" y="-40" width="108" height="80" class="key"/>
<text x="0" y="0" class="key tap">DEL</text>
</g>
<g transform="translate(76, 119)" class="key keypos-2">
<rect rx="6" ry="6" x="-40" y="-103" width="80" height="206" class="key"/>
<text x="0" y="0" class="key tap">CUT</text>
</g>
<g transform="translate(468, 119)" class="key trans keypos-3">
<rect rx="6" ry="6" x="-40" y="-103" width="80" height="206" class="key trans"/>
<text x="0" y="0" class="key trans tap">▽</text>
</g>
<g transform="translate(76, 357)" class="key keypos-4">
<rect rx="6" ry="6" x="-40" y="-103" width="80" height="206" class="key"/>
<text x="0" y="0" class="key tap">
<tspan x="0" dy="-0.6em">PASTE</tspan><tspan x="0" dy="1.2em">VALUES</tspan>
</text>
</g>
<g transform="translate(468, 357)" class="key keypos-5">
<rect rx="6" ry="6" x="-40" y="-103" width="80" height="206" class="key"/>
<text x="0" y="0" class="key tap">
<tspan x="0" dy="-0.6em">SCREEN</tspan><tspan x="0" dy="1.2em">SHOT</tspan>
</text>
</g>
<g transform="translate(202, 434)" class="key keypos-6">
<rect rx="6" ry="6" x="-54" y="-40" width="108" height="80" class="key"/>
<text x="0" y="0" class="key tap">UNDO</text>
</g>
<g transform="translate(342, 434)" class="key keypos-7">
<rect rx="6" ry="6" x="-54" y="-40" width="108" height="80" class="key"/>
<text x="0" y="0" class="key tap">
<tspan x="0" dy="-0.6em">REOPEN</tspan><tspan x="0" dy="1.2em">TAB</tspan>
</text>
</g>
<g transform="translate(10, 448)" class="key keypos-8">
<rect rx="6" ry="6" x="-8" y="-26" width="16" height="52" class="key"/>
<text x="0" y="0" class="key tap">
<tspan x="0" dy="-1.2em">APP</tspan><tspan x="0" dy="1.2em">CYCLE</tspan><tspan x="0" dy="1.2em">&gt;</tspan>
</text>
</g>
<g transform="translate(533, 448)" class="key keypos-9">
<rect rx="6" ry="6" x="-8" y="-26" width="16" height="52" class="key"/>
<text x="0" y="0" class="key tap">
<tspan x="0" dy="-0.6em">TAB</tspan><tspan x="0" dy="1.2em">&lt;</tspan>
</text>
</g>
<g transform="translate(56, 486)" class="key keypos-10">
<rect rx="6" ry="6" x="-26" y="-8" width="52" height="16" class="key"/>
<text x="0" y="0" class="key tap">
<tspan x="0" dy="-1.2em">APP</tspan><tspan x="0" dy="1.2em">CYCLE</tspan><tspan x="0" dy="1.2em">&lt;</tspan>
</text>
</g>
<g transform="translate(487, 486)" class="key keypos-11">
<rect rx="6" ry="6" x="-26" y="-8" width="52" height="16" class="key"/>
<text x="0" y="0" class="key tap">
<tspan x="0" dy="-0.6em">TAB</tspan><tspan x="0" dy="1.2em">&gt;</tspan>
</text>
</g>
<g class="combo combopos-0">
<rect rx="6" ry="6" x="258" y="29" width="28" height="26" class="combo"/>
<a href="#Excel">
<text x="272" y="42" class="combo tap layer-activator">Excel</text>
</a><text x="272" y="53" class="combo hold">toggle</text>
</g>
</g>
</g>
<g transform="translate(30, 552)" class="layer-System">
<text x="0" y="28" class="label" id="System">System</text>
<g transform="translate(0, 56)">
<g transform="translate(202, 42)" class="key keypos-0">
<rect rx="6" ry="6" x="-54" y="-40" width="108" height="80" class="key"/>
<text x="0" y="0" class="key tap">
<tspan x="0" dy="-1.2em">MUI</tspan><tspan x="0" dy="1.2em">/</tspan><tspan x="0" dy="1.2em">DONGLE</tspan>
</text>
</g>
<g transform="translate(342, 42)" class="key keypos-1">
<rect rx="6" ry="6" x="-54" y="-40" width="108" height="80" class="key"/>
<text x="0" y="0" class="key tap">
<tspan x="0" dy="-0.6em">BT</tspan><tspan x="0" dy="1.2em">CLEAR</tspan>
</text>
</g>
<g transform="translate(76, 119)" class="key keypos-2">
<rect rx="6" ry="6" x="-40" y="-103" width="80" height="206" class="key"/>
<text x="0" y="0" class="key tap">
<tspan x="0" dy="-0.6em">SWITCH</tspan><tspan x="0" dy="1.2em">LAYOUT</tspan>
</text>
</g>
<g transform="translate(468, 119)" class="key keypos-3">
<rect rx="6" ry="6" x="-40" y="-103" width="80" height="206" class="key"/>
<text x="0" y="0" class="key tap">
<tspan x="0" dy="-0.6em">BT</tspan><tspan x="0" dy="1.2em">NEXT</tspan>
</text>
</g>
<g transform="translate(76, 357)" class="key keypos-4">
<rect rx="6" ry="6" x="-40" y="-103" width="80" height="206" class="key"/>
<text x="0" y="0" class="key tap">
<tspan x="0" dy="-0.6em">TOGGLE</tspan><tspan x="0" dy="1.2em">EFFECTS</tspan>
</text>
</g>
<g transform="translate(468, 357)" class="key keypos-5">
<rect rx="6" ry="6" x="-40" y="-103" width="80" height="206" class="key"/>
<text x="0" y="0" class="key tap">
<tspan x="0" dy="-0.6em">BT</tspan><tspan x="0" dy="1.2em">PREV</tspan>
</text>
</g>
<g transform="translate(202, 434)" class="key keypos-6">
<rect rx="6" ry="6" x="-54" y="-40" width="108" height="80" class="key"/>
<text x="0" y="0" class="key tap">
<tspan x="0" dy="-0.6em">POWER</tspan><tspan x="0" dy="1.2em">OFF</tspan>
</text>
</g>
<g transform="translate(342, 434)" class="key trans keypos-7">
<rect rx="6" ry="6" x="-54" y="-40" width="108" height="80" class="key trans"/>
<text x="0" y="0" class="key trans tap">▽</text>
</g>
<g transform="translate(10, 448)" class="key keypos-8">
<rect rx="6" ry="6" x="-8" y="-26" width="16" height="52" class="key"/>
<text x="0" y="0" class="key tap">
<tspan x="0" dy="-0.6em">SENS</tspan><tspan x="0" dy="1.2em">+</tspan>
</text>
</g>
<g transform="translate(533, 448)" class="key keypos-9">
<rect rx="6" ry="6" x="-8" y="-26" width="16" height="52" class="key"/>
<text x="0" y="0" class="key tap">
<tspan x="0" dy="-1.2em">SCROLL</tspan><tspan x="0" dy="1.2em">SENS</tspan><tspan x="0" dy="1.2em">+</tspan>
</text>
</g>
<g transform="translate(56, 486)" class="key keypos-10">
<rect rx="6" ry="6" x="-26" y="-8" width="52" height="16" class="key"/>
<text x="0" y="0" class="key tap">
<tspan x="0" dy="-0.6em">SENS</tspan><tspan x="0" dy="1.2em">-</tspan>
</text>
</g>
<g transform="translate(487, 486)" class="key keypos-11">
<rect rx="6" ry="6" x="-26" y="-8" width="52" height="16" class="key"/>
<text x="0" y="0" class="key tap">
<tspan x="0" dy="-1.2em">SCROLL</tspan><tspan x="0" dy="1.2em">SENS</tspan><tspan x="0" dy="1.2em">-</tspan>
</text>
</g>
<g class="combo combopos-0">
<rect rx="6" ry="6" x="258" y="29" width="28" height="26" class="combo"/>
<a href="#Excel">
<text x="272" y="42" class="combo tap layer-activator">Excel</text>
</a><text x="272" y="53" class="combo hold">toggle</text>
</g>
</g>
</g>
<g transform="translate(633, 552)" class="layer-Scroll">
<text x="0" y="28" class="label" id="Scroll">Scroll</text>
<g transform="translate(0, 56)">
<g transform="translate(202, 42)" class="key trans keypos-0">
<rect rx="6" ry="6" x="-54" y="-40" width="108" height="80" class="key trans"/>
<text x="0" y="0" class="key trans tap">▽</text>
</g>
<g transform="translate(342, 42)" class="key keypos-1">
<rect rx="6" ry="6" x="-54" y="-40" width="108" height="80" class="key"/>
<text x="0" y="0" class="key tap">
<tspan x="0" dy="-0.6em">SCROLL</tspan><tspan x="0" dy="1.2em">LOCK</tspan>
</text>
</g>
<g transform="translate(76, 119)" class="key keypos-2">
<rect rx="6" ry="6" x="-40" y="-103" width="80" height="206" class="key"/>
<text x="0" y="0" class="key tap">
<tspan x="0" dy="-0.9em">AXIS</tspan><tspan x="0" dy="1.2em">TOGGLE</tspan>
</text>
<text x="0" y="101" class="key hold"><tspan style="font-size: 78%">AXIS
HOLD</tspan></text>
</g>
<g transform="translate(468, 119)" class="key keypos-3">
<rect rx="6" ry="6" x="-40" y="-103" width="80" height="206" class="key"/>
<text x="0" y="0" class="key tap">
<tspan x="0" dy="-0.6em">ZOOM</tspan><tspan x="0" dy="1.2em">(hold)</tspan>
</text>
</g>
<g transform="translate(76, 357)" class="key trans keypos-4">
<rect rx="6" ry="6" x="-40" y="-103" width="80" height="206" class="key trans"/>
<text x="0" y="0" class="key trans tap">▽</text>
</g>
<g transform="translate(468, 357)" class="key trans keypos-5">
<rect rx="6" ry="6" x="-40" y="-103" width="80" height="206" class="key trans"/>
<text x="0" y="0" class="key trans tap">▽</text>
</g>
<g transform="translate(202, 434)" class="key trans keypos-6">
<rect rx="6" ry="6" x="-54" y="-40" width="108" height="80" class="key trans"/>
<text x="0" y="0" class="key trans tap">▽</text>
</g>
<g transform="translate(342, 434)" class="key trans keypos-7">
<rect rx="6" ry="6" x="-54" y="-40" width="108" height="80" class="key trans"/>
<text x="0" y="0" class="key trans tap">▽</text>
</g>
<g transform="translate(10, 448)" class="key keypos-8">
<rect rx="6" ry="6" x="-8" y="-26" width="16" height="52" class="key"/>
<text x="0" y="0" class="key tap">LEFT</text>
</g>
<g transform="translate(533, 448)" class="key keypos-9">
<rect rx="6" ry="6" x="-8" y="-26" width="16" height="52" class="key"/>
<text x="0" y="0" class="key tap">UP</text>
</g>
<g transform="translate(56, 486)" class="key keypos-10">
<rect rx="6" ry="6" x="-26" y="-8" width="52" height="16" class="key"/>
<text x="0" y="0" class="key tap">RIGHT</text>
</g>
<g transform="translate(487, 486)" class="key keypos-11">
<rect rx="6" ry="6" x="-26" y="-8" width="52" height="16" class="key"/>
<text x="0" y="0" class="key tap">DOWN</text>
</g>
<g class="combo combopos-0">
<rect rx="6" ry="6" x="258" y="29" width="28" height="26" class="combo"/>
<a href="#Excel">
<text x="272" y="42" class="combo tap layer-activator">Excel</text>
</a><text x="272" y="53" class="combo hold">toggle</text>
</g>
</g>
</g>
<g transform="translate(30, 1103)" class="layer-Snipe">
<text x="0" y="28" class="label" id="Snipe">Snipe</text>
<g transform="translate(0, 56)">
<g transform="translate(202, 42)" class="key trans keypos-0">
<rect rx="6" ry="6" x="-54" y="-40" width="108" height="80" class="key trans"/>
<text x="0" y="0" class="key trans tap">▽</text>
</g>
<g transform="translate(342, 42)" class="key trans keypos-1">
<rect rx="6" ry="6" x="-54" y="-40" width="108" height="80" class="key trans"/>
<text x="0" y="0" class="key trans tap">▽</text>
</g>
<g transform="translate(76, 119)" class="key trans keypos-2">
<rect rx="6" ry="6" x="-40" y="-103" width="80" height="206" class="key trans"/>
<text x="0" y="0" class="key trans tap">▽</text>
</g>
<g transform="translate(468, 119)" class="key trans keypos-3">
<rect rx="6" ry="6" x="-40" y="-103" width="80" height="206" class="key trans"/>
<text x="0" y="0" class="key trans tap">▽</text>
</g>
<g transform="translate(76, 357)" class="key trans keypos-4">
<rect rx="6" ry="6" x="-40" y="-103" width="80" height="206" class="key trans"/>
<text x="0" y="0" class="key trans tap">▽</text>
</g>
<g transform="translate(468, 357)" class="key trans keypos-5">
<rect rx="6" ry="6" x="-40" y="-103" width="80" height="206" class="key trans"/>
<text x="0" y="0" class="key trans tap">▽</text>
</g>
<g transform="translate(202, 434)" class="key keypos-6">
<rect rx="6" ry="6" x="-54" y="-40" width="108" height="80" class="key"/>
<text x="0" y="0" class="key tap">
<tspan x="0" dy="-0.6em">SNIPE</tspan><tspan x="0" dy="1.2em">UNLOCK</tspan>
</text>
</g>
<g transform="translate(342, 434)" class="key trans keypos-7">
<rect rx="6" ry="6" x="-54" y="-40" width="108" height="80" class="key trans"/>
<text x="0" y="0" class="key trans tap">▽</text>
</g>
<g transform="translate(10, 448)" class="key keypos-8">
<rect rx="6" ry="6" x="-8" y="-26" width="16" height="52" class="key"/>
<text x="0" y="0" class="key tap">LEFT</text>
</g>
<g transform="translate(533, 448)" class="key keypos-9">
<rect rx="6" ry="6" x="-8" y="-26" width="16" height="52" class="key"/>
<text x="0" y="0" class="key tap">UP</text>
</g>
<g transform="translate(56, 486)" class="key keypos-10">
<rect rx="6" ry="6" x="-26" y="-8" width="52" height="16" class="key"/>
<text x="0" y="0" class="key tap">RIGHT</text>
</g>
<g transform="translate(487, 486)" class="key keypos-11">
<rect rx="6" ry="6" x="-26" y="-8" width="52" height="16" class="key"/>
<text x="0" y="0" class="key tap">DOWN</text>
</g>
<g class="combo combopos-0">
<rect rx="6" ry="6" x="258" y="29" width="28" height="26" class="combo"/>
<a href="#Excel">
<text x="272" y="42" class="combo tap layer-activator">Excel</text>
</a><text x="272" y="53" class="combo hold">toggle</text>
</g>
</g>
</g>
<g transform="translate(633, 1103)" class="layer-Excel">
<text x="0" y="28" class="label" id="Excel">Excel</text>
<g transform="translate(0, 56)">
<g transform="translate(202, 42)" class="key keypos-0">
<rect rx="6" ry="6" x="-54" y="-40" width="108" height="80" class="key"/>
<text x="0" y="0" class="key tap">
<tspan x="0" dy="-0.6em">PASTE</tspan><tspan x="0" dy="1.2em">FORMAT</tspan>
</text>
</g>
<g transform="translate(342, 42)" class="key keypos-1">
<rect rx="6" ry="6" x="-54" y="-40" width="108" height="80" class="key"/>
<text x="0" y="0" class="key tap">
<tspan x="0" dy="-0.6em" style="font-size: 88%">PASTE</tspan><tspan x="0" dy="1.2em" style="font-size: 88%">FORMULAS</tspan>
</text>
</g>
<g transform="translate(76, 119)" class="key keypos-2">
<rect rx="6" ry="6" x="-40" y="-103" width="80" height="206" class="key"/>
<text x="0" y="0" class="key tap">
<tspan x="0" dy="-0.6em" style="font-size: 78%">REV</tspan><tspan x="0" dy="1.2em" style="font-size: 78%">TRANSPOSE</tspan>
</text>
</g>
<g transform="translate(468, 119)" class="key keypos-3">
<rect rx="6" ry="6" x="-40" y="-103" width="80" height="206" class="key"/>
<text x="0" y="0" class="key tap">COPY</text>
<text x="0" y="-101" class="key shifted">PASTE</text>
</g>
<g transform="translate(76, 357)" class="key keypos-4">
<rect rx="6" ry="6" x="-40" y="-103" width="80" height="206" class="key"/>
<text x="0" y="0" class="key tap">
<tspan x="0" dy="-0.6em">LEFT</tspan><tspan x="0" dy="1.2em">CLICK</tspan>
</text>
</g>
<g transform="translate(468, 357)" class="key keypos-5">
<rect rx="6" ry="6" x="-40" y="-103" width="80" height="206" class="key"/>
<text x="0" y="0" class="key tap">
<tspan x="0" dy="-0.6em" style="font-size: 78%">TRANSPOSE</tspan><tspan x="0" dy="1.2em" style="font-size: 78%">VALUES</tspan>
</text>
</g>
<g transform="translate(202, 434)" class="key keypos-6">
<rect rx="6" ry="6" x="-54" y="-40" width="108" height="80" class="key"/>
<text x="0" y="0" class="key tap">
<tspan x="0" dy="-1.2em">COPY</tspan><tspan x="0" dy="1.2em">AS</tspan><tspan x="0" dy="1.2em">PICTURE</tspan>
</text>
</g>
<g transform="translate(342, 434)" class="key keypos-7">
<rect rx="6" ry="6" x="-54" y="-40" width="108" height="80" class="key"/>
<text x="0" y="0" class="key tap">BACK</text>
</g>
<g transform="translate(10, 448)" class="key keypos-8">
<rect rx="6" ry="6" x="-8" y="-26" width="16" height="52" class="key"/>
<text x="0" y="0" class="key tap">
<tspan x="0" dy="-1.2em">APP</tspan><tspan x="0" dy="1.2em">CYCLE</tspan><tspan x="0" dy="1.2em">&gt;</tspan>
</text>
</g>
<g transform="translate(533, 448)" class="key keypos-9">
<rect rx="6" ry="6" x="-8" y="-26" width="16" height="52" class="key"/>
<text x="0" y="0" class="key tap">
<tspan x="0" dy="-0.6em">TAB</tspan><tspan x="0" dy="1.2em">&lt;</tspan>
</text>
</g>
<g transform="translate(56, 486)" class="key keypos-10">
<rect rx="6" ry="6" x="-26" y="-8" width="52" height="16" class="key"/>
<text x="0" y="0" class="key tap">
<tspan x="0" dy="-1.2em">APP</tspan><tspan x="0" dy="1.2em">CYCLE</tspan><tspan x="0" dy="1.2em">&lt;</tspan>
</text>
</g>
<g transform="translate(487, 486)" class="key keypos-11">
<rect rx="6" ry="6" x="-26" y="-8" width="52" height="16" class="key"/>
<text x="0" y="0" class="key tap">
<tspan x="0" dy="-0.6em">TAB</tspan><tspan x="0" dy="1.2em">&gt;</tspan>
</text>
</g>
<g class="combo combopos-0">
<rect rx="6" ry="6" x="258" y="29" width="28" height="26" class="combo"/>
<a href="#Excel">
<text x="272" y="42" class="combo tap layer-activator">Excel</text>
</a><text x="272" y="53" class="combo hold">toggle</text>
</g>
</g>
</g>
<g transform="translate(30, 1655)" class="layer-Media">
<text x="0" y="28" class="label" id="Media">Media</text>
<g transform="translate(0, 56)">
<g transform="translate(202, 42)" class="key trans keypos-0">
<rect rx="6" ry="6" x="-54" y="-40" width="108" height="80" class="key trans"/>
<text x="0" y="0" class="key trans tap">▽</text>
</g>
<g transform="translate(342, 42)" class="key trans keypos-1">
<rect rx="6" ry="6" x="-54" y="-40" width="108" height="80" class="key trans"/>
<text x="0" y="0" class="key trans tap">▽</text>
</g>
<g transform="translate(76, 119)" class="key keypos-2">
<rect rx="6" ry="6" x="-40" y="-103" width="80" height="206" class="key"/>
<text x="0" y="0" class="key tap">PREV</text>
</g>
<g transform="translate(468, 119)" class="key keypos-3">
<rect rx="6" ry="6" x="-40" y="-103" width="80" height="206" class="key"/>
<text x="0" y="0" class="key tap">NEXT</text>
</g>
<g transform="translate(76, 357)" class="key trans keypos-4">
<rect rx="6" ry="6" x="-40" y="-103" width="80" height="206" class="key trans"/>
<text x="0" y="0" class="key trans tap">▽</text>
</g>
<g transform="translate(468, 357)" class="key trans keypos-5">
<rect rx="6" ry="6" x="-40" y="-103" width="80" height="206" class="key trans"/>
<text x="0" y="0" class="key trans tap">▽</text>
</g>
<g transform="translate(202, 434)" class="key keypos-6">
<rect rx="6" ry="6" x="-54" y="-40" width="108" height="80" class="key"/>
<text x="0" y="0" class="key tap">PLAY</text>
</g>
<g transform="translate(342, 434)" class="key keypos-7">
<rect rx="6" ry="6" x="-54" y="-40" width="108" height="80" class="key"/>
<text x="0" y="0" class="key tap">BACK</text>
</g>
<g transform="translate(10, 448)" class="key keypos-8">
<rect rx="6" ry="6" x="-8" y="-26" width="16" height="52" class="key"/>
<text x="0" y="0" class="key tap">
<tspan x="0" dy="-0.6em">VOL</tspan><tspan x="0" dy="1.2em">+</tspan>
</text>
</g>
<g transform="translate(533, 448)" class="key keypos-9">
<rect rx="6" ry="6" x="-8" y="-26" width="16" height="52" class="key"/>
<text x="0" y="0" class="key tap">
<tspan x="0" dy="-0.6em">TAB</tspan><tspan x="0" dy="1.2em">&lt;</tspan>
</text>
</g>
<g transform="translate(56, 486)" class="key keypos-10">
<rect rx="6" ry="6" x="-26" y="-8" width="52" height="16" class="key"/>
<text x="0" y="0" class="key tap">
<tspan x="0" dy="-0.6em">VOL</tspan><tspan x="0" dy="1.2em">-</tspan>
</text>
</g>
<g transform="translate(487, 486)" class="key keypos-11">
<rect rx="6" ry="6" x="-26" y="-8" width="52" height="16" class="key"/>
<text x="0" y="0" class="key tap">
<tspan x="0" dy="-0.6em">TAB</tspan><tspan x="0" dy="1.2em">&gt;</tspan>
</text>
</g>
<g class="combo combopos-0">
<rect rx="6" ry="6" x="258" y="29" width="28" height="26" class="combo"/>
<a href="#Excel">
<text x="272" y="42" class="combo tap layer-activator">Excel</text>
</a><text x="272" y="53" class="combo hold">toggle</text>
</g>
</g>
</g>
</svg>
