<svg width="1053" height="1167" viewBox="0 0 1053 1167" class="keymap" xmlns="http://www.w3.org/2000/svg" xmlns:xlink="http://www.w3.org/1999/xlink">
<rect id="page-bg" width="100%" height="100%" fill="#ffffff"/>
<style>/* inherit to force styles through use tags */
svg path {
    fill: inherit;
}

/* font and background color specifications */
svg.keymap {
    font-family: SFMono-Regular,Consolas,Liberation Mono,Menlo,monospace;
    font-size: 14px;
    font-kerning: normal;
    text-rendering: optimizeLegibility;
    fill: #24292e;
}

/* default key styling */
rect.key {
    fill: #f6f8fa;
}

rect.key, rect.combo {
    stroke: #c9cccf;
    stroke-width: 1;
}

/* default key side styling, only used is draw_key_sides is set */
rect.side {
    filter: brightness(90%);
}

/* color accent for combo boxes */
rect.combo, rect.combo-separate {
    fill: #cdf;
}

/* color accent for held keys */
rect.held, rect.combo.held {
    fill: #fdd;
}

/* color accent for ghost (optional) keys */
rect.ghost, rect.combo.ghost {
    stroke-dasharray: 4, 4;
    stroke-width: 2;
}

text {
    text-anchor: middle;
    dominant-baseline: middle;
}

/* styling for layer labels */
text.label {
    font-weight: bold;
    text-anchor: start;
    stroke: white;
    stroke-width: 4;
    paint-order: stroke;
}

/* styling for optional footer */
text.footer {
    text-anchor: end;
    dominant-baseline: auto;
    stroke: white;
    stroke-width: 4;
    paint-order: stroke;
}

/* styling for combo tap, and key non-tap label text */
text.combo, text.hold, text.shifted, text.left, text.right, text.tl, text.tr, text.bl, text.br {
    font-size: 11px;
}

text.hold, text.bl, text.br {
    text-anchor: middle;
    dominant-baseline: auto;
}

text.shifted, text.tl, text.tr {
    text-anchor: middle;
    dominant-baseline: hanging;
}

text.left, text.tl, text.bl {
    text-anchor: start;
}

text.right, text.tr, text.br {
    text-anchor: end;
}

text.layer-activator {
    text-decoration: underline;
}

/* styling for hold/shifted label text in combo box */
text.combo.hold, text.combo.shifted, text.combo.left, text.combo.right {
    font-size: 8px;
}

/* lighter symbol for transparent keys */
text.trans {
    fill: #7b7e81;
}

/* styling for combo dendrons */
path.combo {
    stroke-width: 1;
    stroke: gray;
    fill: none;
}

/* Start Tabler Icons Cleanup */
/* cannot use height/width with glyphs */
.icon-tabler > path {
    fill: inherit;
    stroke: inherit;
    stroke-width: 2;
}
/* hide tabler's default box */
.icon-tabler > path[stroke="none"][fill="none"] {
    visibility: hidden;
}
/* End Tabler Icons Cleanup */

svg.keymap {
  font-family: "DejaVu Sans", "Segoe UI", sans-serif;
  font-size: 15px;
  font-weight: 400;
  fill: #1a1d21;
}
rect.key {
  fill: #ffffff;
  stroke: #1a1d21;
  stroke-width: 1.5;
}
rect.combo, rect.combo-separate {
  fill: #d8ebff;
  stroke: #2b6cb0;
  stroke-width: 1.5;
}
rect.held, rect.combo.held {
  fill: #ffe8c8;
  stroke: #c05621;
}
rect.ghost, rect.combo.ghost {
  stroke: #a0a6ad;
  stroke-dasharray: 5, 4;
  fill: #f4f5f6;
}
text.label {
  font-size: 18px;
  font-weight: 400 !important;
  letter-spacing: 0;
  stroke: #ffffff;
  stroke-width: 5;
  paint-order: stroke;
}
text.footer {
  font-size: 11px;
  font-weight: 400;
  fill: #5c6570;
  stroke: none;
}
text.key.tap {
  font-size: 14px;
  font-weight: 400;
}
text.hold, text.shifted, text.left, text.right, text.tl, text.tr, text.bl, text.br, text.combo {
  font-size: 11px;
  font-weight: 400;
}
text.hold {
  fill: #c05621;
}
text.shifted {
  fill: #2b6cb0;
}
text.combo.tap {
  font-size: 11px;
  font-weight: 400;
}
text.combo.hold, text.combo.shifted {
  font-size: 9px;
  font-weight: 400;
}
text.trans {
  fill: #c5c9ce;
}
path.combo {
  stroke: #2b6cb0;
  stroke-width: 1.5;
}
</style>
<g transform="translate(36, 0)" class="layer-default">
<text x="0" y="22" class="label" id="default">default</text>
<g transform="translate(0, 44)">
<g transform="translate(158, 30)" class="key keypos-0">
<rect rx="10" ry="10" x="-56" y="-24" width="113" height="49" class="key"/>
<text x="0" y="0" class="key tap">enter</text>
<text x="0" y="20" class="key hold">media</text>
</g>
<g transform="translate(296, 30)" class="key keypos-1">
<rect rx="10" ry="10" x="-56" y="-24" width="113" height="49" class="key"/>
<text x="0" y="0" class="key tap">esc</text>
<text x="0" y="20" class="key hold">scroll</text>
<text x="0" y="-20" class="key shifted">2× lock</text>
</g>
<g transform="translate(45, 30)" class="key keypos-2">
<rect rx="10" ry="10" x="-39" y="-24" width="78" height="49" class="key"/>
<text x="0" y="0" class="key tap">mid</text>
</g>
<g transform="translate(410, 30)" class="key keypos-3">
<rect rx="10" ry="10" x="-39" y="-24" width="78" height="49" class="key"/>
<text x="0" y="0" class="key tap">copy</text>
<text x="0" y="20" class="key hold">edit</text>
<text x="0" y="-20" class="key shifted">2× paste</text>
</g>
<g transform="translate(45, 101)" class="key keypos-4">
<rect rx="10" ry="10" x="-39" y="-24" width="78" height="49" class="key"/>
<text x="0" y="0" class="key tap">left</text>
</g>
<g transform="translate(410, 101)" class="key keypos-5">
<rect rx="10" ry="10" x="-39" y="-24" width="78" height="49" class="key"/>
<text x="0" y="0" class="key tap">right</text>
</g>
<g transform="translate(158, 171)" class="key keypos-6">
<rect rx="10" ry="10" x="-56" y="-24" width="113" height="49" class="key"/>
<text x="0" y="0" class="key tap">back</text>
<text x="0" y="20" class="key hold">snipe</text>
<text x="0" y="-20" class="key shifted">2× lock</text>
</g>
<g transform="translate(296, 171)" class="key keypos-7">
<rect rx="10" ry="10" x="-56" y="-24" width="113" height="49" class="key"/>
<text x="0" y="0" class="key tap">close</text>
<text x="0" y="20" class="key hold">system</text>
<text x="0" y="-20" class="key shifted">2× reload</text>
</g>
<g transform="translate(22, 170)" class="key keypos-8">
<rect rx="10" ry="10" x="-16" y="-20" width="33" height="39" class="key"/>
<text x="0" y="0" class="key tap">
<tspan x="0" dy="-0.57em">app</tspan><tspan x="0" dy="1.15em">←</tspan>
</text>
</g>
<g transform="translate(432, 170)" class="key keypos-9">
<rect rx="10" ry="10" x="-16" y="-20" width="33" height="39" class="key"/>
<text x="0" y="0" class="key tap">
<tspan x="0" dy="-0.57em">tab</tspan><tspan x="0" dy="1.15em">←</tspan>
</text>
</g>
<g transform="translate(80, 219)" class="key keypos-10">
<rect rx="10" ry="10" x="-26" y="-12" width="52" height="23" class="key"/>
<text x="0" y="0" class="key tap">
<tspan x="0" dy="-0.57em">app</tspan><tspan x="0" dy="1.15em">→</tspan>
</text>
</g>
<g transform="translate(374, 219)" class="key keypos-11">
<rect rx="10" ry="10" x="-26" y="-12" width="52" height="23" class="key"/>
<text x="0" y="0" class="key tap">
<tspan x="0" dy="-0.57em">tab</tspan><tspan x="0" dy="1.15em">→</tspan>
</text>
</g>
<g class="combo combopos-0">
<rect rx="10" ry="10" x="203" y="17" width="48" height="26" class="combo"/>
<text x="227" y="30" class="combo tap">excel</text>
<text x="227" y="39" class="combo hold">tog</text>
</g>
</g>
</g>
<g transform="translate(562, 0)" class="layer-edit">
<text x="0" y="22" class="label" id="edit">edit</text>
<g transform="translate(0, 44)">
<g transform="translate(158, 30)" class="key keypos-0">
<rect rx="10" ry="10" x="-56" y="-24" width="113" height="49" class="key"/>
<text x="0" y="0" class="key tap">bksp</text>
</g>
<g transform="translate(296, 30)" class="key keypos-1">
<rect rx="10" ry="10" x="-56" y="-24" width="113" height="49" class="key"/>
<text x="0" y="0" class="key tap">del</text>
</g>
<g transform="translate(45, 30)" class="key keypos-2">
<rect rx="10" ry="10" x="-39" y="-24" width="78" height="49" class="key"/>
<text x="0" y="0" class="key tap">cut</text>
</g>
<g transform="translate(410, 30)" class="key keypos-3">
<rect rx="10" ry="10" x="-39" y="-24" width="78" height="49" class="key"/>
</g>
<g transform="translate(45, 101)" class="key keypos-4">
<rect rx="10" ry="10" x="-39" y="-24" width="78" height="49" class="key"/>
<text x="0" y="0" class="key tap">
<tspan x="0" dy="-0.57em">paste</tspan><tspan x="0" dy="1.15em">values</tspan>
</text>
</g>
<g transform="translate(410, 101)" class="key keypos-5">
<rect rx="10" ry="10" x="-39" y="-24" width="78" height="49" class="key"/>
<text x="0" y="0" class="key tap">shot</text>
</g>
<g transform="translate(158, 171)" class="key keypos-6">
<rect rx="10" ry="10" x="-56" y="-24" width="113" height="49" class="key"/>
<text x="0" y="0" class="key tap">undo</text>
</g>
<g transform="translate(296, 171)" class="key keypos-7">
<rect rx="10" ry="10" x="-56" y="-24" width="113" height="49" class="key"/>
<text x="0" y="0" class="key tap">
<tspan x="0" dy="-0.57em">reopen</tspan><tspan x="0" dy="1.15em">tab</tspan>
</text>
</g>
<g transform="translate(22, 170)" class="key keypos-8">
<rect rx="10" ry="10" x="-16" y="-20" width="33" height="39" class="key"/>
<text x="0" y="0" class="key tap">
<tspan x="0" dy="-0.57em">app</tspan><tspan x="0" dy="1.15em">←</tspan>
</text>
</g>
<g transform="translate(432, 170)" class="key keypos-9">
<rect rx="10" ry="10" x="-16" y="-20" width="33" height="39" class="key"/>
<text x="0" y="0" class="key tap">
<tspan x="0" dy="-0.57em">tab</tspan><tspan x="0" dy="1.15em">←</tspan>
</text>
</g>
<g transform="translate(80, 219)" class="key keypos-10">
<rect rx="10" ry="10" x="-26" y="-12" width="52" height="23" class="key"/>
<text x="0" y="0" class="key tap">
<tspan x="0" dy="-0.57em">app</tspan><tspan x="0" dy="1.15em">→</tspan>
</text>
</g>
<g transform="translate(374, 219)" class="key keypos-11">
<rect rx="10" ry="10" x="-26" y="-12" width="52" height="23" class="key"/>
<text x="0" y="0" class="key tap">
<tspan x="0" dy="-0.57em">tab</tspan><tspan x="0" dy="1.15em">→</tspan>
</text>
</g>
<g class="combo combopos-0">
<rect rx="10" ry="10" x="203" y="17" width="48" height="26" class="combo"/>
<text x="227" y="30" class="combo tap">excel</text>
<text x="227" y="39" class="combo hold">tog</text>
</g>
</g>
</g>
<g transform="translate(36, 281)" class="layer-system">
<text x="0" y="22" class="label" id="system">system</text>
<g transform="translate(0, 44)">
<g transform="translate(158, 30)" class="key keypos-0">
<rect rx="10" ry="10" x="-56" y="-24" width="113" height="49" class="key"/>
<text x="0" y="0" class="key tap">ble</text>
<text x="0" y="-20" class="key shifted">2× usb</text>
</g>
<g transform="translate(296, 30)" class="key keypos-1">
<rect rx="10" ry="10" x="-56" y="-24" width="113" height="49" class="key"/>
<text x="0" y="0" class="key tap">
<tspan x="0" dy="-0.57em">bt</tspan><tspan x="0" dy="1.15em">clear</tspan>
</text>
</g>
<g transform="translate(45, 30)" class="key keypos-2">
<rect rx="10" ry="10" x="-39" y="-24" width="78" height="49" class="key"/>
<text x="0" y="0" class="key tap">layout</text>
</g>
<g transform="translate(410, 30)" class="key keypos-3">
<rect rx="10" ry="10" x="-39" y="-24" width="78" height="49" class="key"/>
<text x="0" y="0" class="key tap">
<tspan x="0" dy="-0.57em">bt</tspan><tspan x="0" dy="1.15em">→</tspan>
</text>
</g>
<g transform="translate(45, 101)" class="key keypos-4">
<rect rx="10" ry="10" x="-39" y="-24" width="78" height="49" class="key"/>
<text x="0" y="0" class="key tap">fx</text>
</g>
<g transform="translate(410, 101)" class="key keypos-5">
<rect rx="10" ry="10" x="-39" y="-24" width="78" height="49" class="key"/>
<text x="0" y="0" class="key tap">
<tspan x="0" dy="-0.57em">bt</tspan><tspan x="0" dy="1.15em">←</tspan>
</text>
</g>
<g transform="translate(158, 171)" class="key keypos-6">
<rect rx="10" ry="10" x="-56" y="-24" width="113" height="49" class="key"/>
<text x="0" y="0" class="key tap">power</text>
</g>
<g transform="translate(296, 171)" class="key keypos-7">
<rect rx="10" ry="10" x="-56" y="-24" width="113" height="49" class="key"/>
</g>
<g transform="translate(22, 170)" class="key keypos-8">
<rect rx="10" ry="10" x="-16" y="-20" width="33" height="39" class="key"/>
<text x="0" y="0" class="key tap">
<tspan x="0" dy="-0.57em">sens</tspan><tspan x="0" dy="1.15em">+</tspan>
</text>
</g>
<g transform="translate(432, 170)" class="key keypos-9">
<rect rx="10" ry="10" x="-16" y="-20" width="33" height="39" class="key"/>
<text x="0" y="0" class="key tap">
<tspan x="0" dy="-0.57em">scrl</tspan><tspan x="0" dy="1.15em">+</tspan>
</text>
</g>
<g transform="translate(80, 219)" class="key keypos-10">
<rect rx="10" ry="10" x="-26" y="-12" width="52" height="23" class="key"/>
<text x="0" y="0" class="key tap">
<tspan x="0" dy="-0.57em">sens</tspan><tspan x="0" dy="1.15em">-</tspan>
</text>
</g>
<g transform="translate(374, 219)" class="key keypos-11">
<rect rx="10" ry="10" x="-26" y="-12" width="52" height="23" class="key"/>
<text x="0" y="0" class="key tap">
<tspan x="0" dy="-0.57em">scrl</tspan><tspan x="0" dy="1.15em">-</tspan>
</text>
</g>
<g class="combo combopos-0">
<rect rx="10" ry="10" x="203" y="17" width="48" height="26" class="combo"/>
<text x="227" y="30" class="combo tap">excel</text>
<text x="227" y="39" class="combo hold">tog</text>
</g>
</g>
</g>
<g transform="translate(562, 281)" class="layer-scroll">
<text x="0" y="22" class="label" id="scroll">scroll</text>
<g transform="translate(0, 44)">
<g transform="translate(158, 30)" class="key keypos-0">
<rect rx="10" ry="10" x="-56" y="-24" width="113" height="49" class="key"/>
</g>
<g transform="translate(296, 30)" class="key keypos-1">
<rect rx="10" ry="10" x="-56" y="-24" width="113" height="49" class="key"/>
<text x="0" y="0" class="key tap">
<tspan x="0" dy="-0.57em">unlock</tspan><tspan x="0" dy="1.15em">scroll</tspan>
</text>
</g>
<g transform="translate(45, 30)" class="key keypos-2">
<rect rx="10" ry="10" x="-39" y="-24" width="78" height="49" class="key"/>
<text x="0" y="0" class="key tap">axis</text>
<text x="0" y="20" class="key hold">hold</text>
</g>
<g transform="translate(410, 30)" class="key keypos-3">
<rect rx="10" ry="10" x="-39" y="-24" width="78" height="49" class="key"/>
<text x="0" y="0" class="key tap">zoom</text>
</g>
<g transform="translate(45, 101)" class="key keypos-4">
<rect rx="10" ry="10" x="-39" y="-24" width="78" height="49" class="key"/>
</g>
<g transform="translate(410, 101)" class="key keypos-5">
<rect rx="10" ry="10" x="-39" y="-24" width="78" height="49" class="key"/>
</g>
<g transform="translate(158, 171)" class="key keypos-6">
<rect rx="10" ry="10" x="-56" y="-24" width="113" height="49" class="key"/>
</g>
<g transform="translate(296, 171)" class="key keypos-7">
<rect rx="10" ry="10" x="-56" y="-24" width="113" height="49" class="key"/>
</g>
<g transform="translate(22, 170)" class="key keypos-8">
<rect rx="10" ry="10" x="-16" y="-20" width="33" height="39" class="key"/>
<text x="0" y="0" class="key tap">←</text>
</g>
<g transform="translate(432, 170)" class="key keypos-9">
<rect rx="10" ry="10" x="-16" y="-20" width="33" height="39" class="key"/>
<text x="0" y="0" class="key tap">↑</text>
</g>
<g transform="translate(80, 219)" class="key keypos-10">
<rect rx="10" ry="10" x="-26" y="-12" width="52" height="23" class="key"/>
<text x="0" y="0" class="key tap">→</text>
</g>
<g transform="translate(374, 219)" class="key keypos-11">
<rect rx="10" ry="10" x="-26" y="-12" width="52" height="23" class="key"/>
<text x="0" y="0" class="key tap">↓</text>
</g>
<g class="combo combopos-0">
<rect rx="10" ry="10" x="203" y="17" width="48" height="26" class="combo"/>
<text x="227" y="30" class="combo tap">excel</text>
<text x="227" y="39" class="combo hold">tog</text>
</g>
</g>
</g>
<g transform="translate(36, 562)" class="layer-snipe">
<text x="0" y="22" class="label" id="snipe">snipe</text>
<g transform="translate(0, 44)">
<g transform="translate(158, 30)" class="key keypos-0">
<rect rx="10" ry="10" x="-56" y="-24" width="113" height="49" class="key"/>
</g>
<g transform="translate(296, 30)" class="key keypos-1">
<rect rx="10" ry="10" x="-56" y="-24" width="113" height="49" class="key"/>
</g>
<g transform="translate(45, 30)" class="key keypos-2">
<rect rx="10" ry="10" x="-39" y="-24" width="78" height="49" class="key"/>
</g>
<g transform="translate(410, 30)" class="key keypos-3">
<rect rx="10" ry="10" x="-39" y="-24" width="78" height="49" class="key"/>
</g>
<g transform="translate(45, 101)" class="key keypos-4">
<rect rx="10" ry="10" x="-39" y="-24" width="78" height="49" class="key"/>
</g>
<g transform="translate(410, 101)" class="key keypos-5">
<rect rx="10" ry="10" x="-39" y="-24" width="78" height="49" class="key"/>
</g>
<g transform="translate(158, 171)" class="key keypos-6">
<rect rx="10" ry="10" x="-56" y="-24" width="113" height="49" class="key"/>
<text x="0" y="0" class="key tap">
<tspan x="0" dy="-0.57em">unlock</tspan><tspan x="0" dy="1.15em">snipe</tspan>
</text>
</g>
<g transform="translate(296, 171)" class="key keypos-7">
<rect rx="10" ry="10" x="-56" y="-24" width="113" height="49" class="key"/>
</g>
<g transform="translate(22, 170)" class="key keypos-8">
<rect rx="10" ry="10" x="-16" y="-20" width="33" height="39" class="key"/>
<text x="0" y="0" class="key tap">←</text>
</g>
<g transform="translate(432, 170)" class="key keypos-9">
<rect rx="10" ry="10" x="-16" y="-20" width="33" height="39" class="key"/>
<text x="0" y="0" class="key tap">↑</text>
</g>
<g transform="translate(80, 219)" class="key keypos-10">
<rect rx="10" ry="10" x="-26" y="-12" width="52" height="23" class="key"/>
<text x="0" y="0" class="key tap">→</text>
</g>
<g transform="translate(374, 219)" class="key keypos-11">
<rect rx="10" ry="10" x="-26" y="-12" width="52" height="23" class="key"/>
<text x="0" y="0" class="key tap">↓</text>
</g>
<g class="combo combopos-0">
<rect rx="10" ry="10" x="203" y="17" width="48" height="26" class="combo"/>
<text x="227" y="30" class="combo tap">excel</text>
<text x="227" y="39" class="combo hold">tog</text>
</g>
</g>
</g>
<g transform="translate(562, 562)" class="layer-excel">
<text x="0" y="22" class="label" id="excel">excel</text>
<g transform="translate(0, 44)">
<g transform="translate(158, 30)" class="key keypos-0">
<rect rx="10" ry="10" x="-56" y="-24" width="113" height="49" class="key"/>
<text x="0" y="0" class="key tap">
<tspan x="0" dy="-0.57em">paste</tspan><tspan x="0" dy="1.15em">format</tspan>
</text>
</g>
<g transform="translate(296, 30)" class="key keypos-1">
<rect rx="10" ry="10" x="-56" y="-24" width="113" height="49" class="key"/>
<text x="0" y="0" class="key tap">
<tspan x="0" dy="-0.57em">paste</tspan><tspan x="0" dy="1.15em">formulas</tspan>
</text>
</g>
<g transform="translate(45, 30)" class="key keypos-2">
<rect rx="10" ry="10" x="-39" y="-24" width="78" height="49" class="key"/>
<text x="0" y="0" class="key tap">
<tspan x="0" dy="-0.57em">rev</tspan><tspan x="0" dy="1.15em">transpose</tspan>
</text>
</g>
<g transform="translate(410, 30)" class="key keypos-3">
<rect rx="10" ry="10" x="-39" y="-24" width="78" height="49" class="key"/>
<text x="0" y="0" class="key tap">copy</text>
<text x="0" y="-20" class="key shifted">2× paste</text>
</g>
<g transform="translate(45, 101)" class="key keypos-4">
<rect rx="10" ry="10" x="-39" y="-24" width="78" height="49" class="key"/>
<text x="0" y="0" class="key tap">left</text>
</g>
<g transform="translate(410, 101)" class="key keypos-5">
<rect rx="10" ry="10" x="-39" y="-24" width="78" height="49" class="key"/>
<text x="0" y="0" class="key tap">
<tspan x="0" dy="-0.57em">transpose</tspan><tspan x="0" dy="1.15em">values</tspan>
</text>
</g>
<g transform="translate(158, 171)" class="key keypos-6">
<rect rx="10" ry="10" x="-56" y="-24" width="113" height="49" class="key"/>
<text x="0" y="0" class="key tap">
<tspan x="0" dy="-0.57em">copy</tspan><tspan x="0" dy="1.15em">picture</tspan>
</text>
</g>
<g transform="translate(296, 171)" class="key keypos-7">
<rect rx="10" ry="10" x="-56" y="-24" width="113" height="49" class="key"/>
<text x="0" y="0" class="key tap">home</text>
</g>
<g transform="translate(22, 170)" class="key keypos-8">
<rect rx="10" ry="10" x="-16" y="-20" width="33" height="39" class="key"/>
<text x="0" y="0" class="key tap">
<tspan x="0" dy="-0.57em">app</tspan><tspan x="0" dy="1.15em">←</tspan>
</text>
</g>
<g transform="translate(432, 170)" class="key keypos-9">
<rect rx="10" ry="10" x="-16" y="-20" width="33" height="39" class="key"/>
<text x="0" y="0" class="key tap">
<tspan x="0" dy="-0.57em">tab</tspan><tspan x="0" dy="1.15em">←</tspan>
</text>
</g>
<g transform="translate(80, 219)" class="key keypos-10">
<rect rx="10" ry="10" x="-26" y="-12" width="52" height="23" class="key"/>
<text x="0" y="0" class="key tap">
<tspan x="0" dy="-0.57em">app</tspan><tspan x="0" dy="1.15em">→</tspan>
</text>
</g>
<g transform="translate(374, 219)" class="key keypos-11">
<rect rx="10" ry="10" x="-26" y="-12" width="52" height="23" class="key"/>
<text x="0" y="0" class="key tap">
<tspan x="0" dy="-0.57em">tab</tspan><tspan x="0" dy="1.15em">→</tspan>
</text>
</g>
<g class="combo combopos-0">
<rect rx="10" ry="10" x="203" y="17" width="48" height="26" class="combo"/>
<text x="227" y="30" class="combo tap">excel</text>
<text x="227" y="39" class="combo hold">tog</text>
</g>
</g>
</g>
<g transform="translate(36, 842)" class="layer-media">
<text x="0" y="22" class="label" id="media">media</text>
<g transform="translate(0, 44)">
<g transform="translate(158, 30)" class="key keypos-0">
<rect rx="10" ry="10" x="-56" y="-24" width="113" height="49" class="key"/>
</g>
<g transform="translate(296, 30)" class="key keypos-1">
<rect rx="10" ry="10" x="-56" y="-24" width="113" height="49" class="key"/>
</g>
<g transform="translate(45, 30)" class="key keypos-2">
<rect rx="10" ry="10" x="-39" y="-24" width="78" height="49" class="key"/>
<text x="0" y="0" class="key tap">prev</text>
</g>
<g transform="translate(410, 30)" class="key keypos-3">
<rect rx="10" ry="10" x="-39" y="-24" width="78" height="49" class="key"/>
<text x="0" y="0" class="key tap">next</text>
</g>
<g transform="translate(45, 101)" class="key keypos-4">
<rect rx="10" ry="10" x="-39" y="-24" width="78" height="49" class="key"/>
</g>
<g transform="translate(410, 101)" class="key keypos-5">
<rect rx="10" ry="10" x="-39" y="-24" width="78" height="49" class="key"/>
</g>
<g transform="translate(158, 171)" class="key keypos-6">
<rect rx="10" ry="10" x="-56" y="-24" width="113" height="49" class="key"/>
<text x="0" y="0" class="key tap">play</text>
</g>
<g transform="translate(296, 171)" class="key keypos-7">
<rect rx="10" ry="10" x="-56" y="-24" width="113" height="49" class="key"/>
<text x="0" y="0" class="key tap">home</text>
</g>
<g transform="translate(22, 170)" class="key keypos-8">
<rect rx="10" ry="10" x="-16" y="-20" width="33" height="39" class="key"/>
<text x="0" y="0" class="key tap">
<tspan x="0" dy="-0.57em">vol</tspan><tspan x="0" dy="1.15em">+</tspan>
</text>
</g>
<g transform="translate(432, 170)" class="key keypos-9">
<rect rx="10" ry="10" x="-16" y="-20" width="33" height="39" class="key"/>
<text x="0" y="0" class="key tap">
<tspan x="0" dy="-0.57em">tab</tspan><tspan x="0" dy="1.15em">←</tspan>
</text>
</g>
<g transform="translate(80, 219)" class="key keypos-10">
<rect rx="10" ry="10" x="-26" y="-12" width="52" height="23" class="key"/>
<text x="0" y="0" class="key tap">
<tspan x="0" dy="-0.57em">vol</tspan><tspan x="0" dy="1.15em">-</tspan>
</text>
</g>
<g transform="translate(374, 219)" class="key keypos-11">
<rect rx="10" ry="10" x="-26" y="-12" width="52" height="23" class="key"/>
<text x="0" y="0" class="key tap">
<tspan x="0" dy="-0.57em">tab</tspan><tspan x="0" dy="1.15em">→</tspan>
</text>
</g>
<g class="combo combopos-0">
<rect rx="10" ry="10" x="203" y="17" width="48" height="26" class="combo"/>
<text x="227" y="30" class="combo tap">excel</text>
<text x="227" y="39" class="combo hold">tog</text>
</g>
</g>
</g>
<text x="1017.0" y="1145.0" class="footer">orange = hold · blue = double-tap (2×)</text></svg>
